<?xml version="1.0" standalone="no"?><!DOCTYPE svg PUBLIC "-//W3C//DTD SVG 1.1//EN" "http://www.w3.org/Graphics/SVG/1.1/DTD/svg11.dtd"><svg t="1498051232151" class="icon" style="" viewBox="0 0 1024 1024" version="1.1" xmlns="http://www.w3.org/2000/svg" p-id="3538" xmlns:xlink="http://www.w3.org/1999/xlink" width="32" height="32"><defs><style type="text/css"></style></defs><path d="M830.674946 193.325054c-176.017876-176.018899-461.33304-176.018899-637.352963 0-176.020946 176.017876-176.011736 461.3269 0.007163 637.3458 176.018899 176.018899 461.327924 176.027086 637.348869 0.007163C1006.693846 654.659117 1006.693846 369.344976 830.674946 193.325054L830.674946 193.325054zM218.821751 805.178249C57.167001 643.525546 57.163931 380.471384 218.815611 218.818681c161.655773-161.655773 424.710958-161.65475 586.364685 0 161.65475 161.653727 161.65475 424.711981 0 586.366731C643.527592 966.837092 380.475478 966.831976 218.821751 805.178249L218.821751 805.178249z" p-id="3539"></path><path d="M307.759339 487.816205l408.481322 0 0 48.366567-408.481322 0 0-48.366567Z" p-id="3540"></path><path d="M487.817228 307.759339l48.366567 0 0 408.481322-48.366567 0 0-408.481322Z" p-id="3541"></path></svg>