<?xml version="1.0" standalone="no"?><!DOCTYPE svg PUBLIC "-//W3C//DTD SVG 1.1//EN" "http://www.w3.org/Graphics/SVG/1.1/DTD/svg11.dtd"><svg class="icon" width="200px" height="200.00px" viewBox="0 0 1024 1024" version="1.1" xmlns="http://www.w3.org/2000/svg"><path d="M858.5 675.9C790 654.7 637.1 604 637.1 604s67-129.3 83.9-217.3H514.4v-78h245.2v-33.4H514.4v-117H403.3v117H180.6v33.4h222.7v78H214v33.4l300.4-0.7 85.6-0.4-1.9 1.1s-37.8 120.6-55.7 150.4c-44-15.6-151.7-53.5-220.1-60.3-18-2.5-35.5-3.8-52-3.8C149.5 506.3 64 582.1 64 675.5s85.5 169.1 206.3 169.1c68.4 0 154.4-25.9 216.1-65.3 6.2-3.3 18.3-12.6 18.3-12.6 12.5-9.4 23.6-19.3 32.9-29.8 29.7-27.9 49.4-49.4 49.4-49.4l373 178.3V698.7s-33-1.6-101.5-22.8zM270.3 782.5c-104.8 4.4-173.2-25.9-173.2-107 0-73.5 70.6-105.6 175.5-105.6s230.9 67.5 230.9 67.5-86.2 138.9-233.2 145.1z"  /></svg>
