<?xml version="1.0" standalone="no"?><!DOCTYPE svg PUBLIC "-//W3C//DTD SVG 1.1//EN" "http://www.w3.org/Graphics/SVG/1.1/DTD/svg11.dtd"><svg class="icon" width="200px" height="200.00px" viewBox="0 0 1024 1024" version="1.1" xmlns="http://www.w3.org/2000/svg"><path fill="#333333" d="M177.888 254.784c20.8 0 38.848-7.584 54.08-22.816s22.816-33.28 22.816-54.08c0-20.832-7.584-38.88-22.816-54.08-15.232-15.232-33.28-22.848-54.08-22.848-20.832 0-38.88 7.616-54.08 22.848-15.232 15.2-22.848 33.248-22.848 54.08 0 20.8 7.616 38.848 22.848 54.08 15.2 15.232 33.248 22.816 54.08 22.816z m817.28 235.584c19.2 19.2 28.832 43.264 28.832 72.096 0 28.864-9.6 52.896-28.832 72.128L634.56 995.168c-19.232 19.2-43.264 28.832-72.128 28.832-28.8 0-52.864-9.6-72.096-28.832L28.8 533.632c-19.2-19.2-28.832-43.264-28.832-72.096V100.96c0-27.232 10.016-50.88 30.048-70.912C50.08 10.016 73.728 0 100.96 0h360.576c28.8 0 52.864 9.6 72.096 28.832L995.2 490.368z" /></svg>