<?xml version="1.0" standalone="no"?><!DOCTYPE svg PUBLIC "-//W3C//DTD SVG 1.1//EN" "http://www.w3.org/Graphics/SVG/1.1/DTD/svg11.dtd"><svg class="icon" width="200px" height="200.00px" viewBox="0 0 1024 1024" version="1.1" xmlns="http://www.w3.org/2000/svg"><path d="M819.241 1024H204.759C91.675 1024 0 932.229 0 819.241V204.759C0 91.675 91.771 0 204.759 0h614.482C932.325 0 1024 91.771 1024 204.759v614.482C1024 932.325 932.229 1024 819.241 1024zM467.736 722.732h147.927V489.165H467.736v233.567z m-1.502-278.63h142.698V383.27H466.234v60.832z m-237.336-248.6l-58.566 36.796c42.803 63.836 76.602 121.672 102.134 172.735l57.098-39.035c-23.299-48.831-57.098-105.895-100.666-170.496z m48.067 308.661c-30.768 105.172-66.833 208.773-108.899 309.439l66.103 29.334c38.298-98.406 72.868-202.8 104.4-313.972l-61.604-24.801z m557.301-93.86l-60.068-25.539c-13.53 70.601-31.601 132.936-54.129 188.505l-8.267-63.836c-6.738-60.068-11.271-118.668-14.268-176.497h147.197v-65.338H811c-12.07-28.529-24.071-54.067-36.803-77.367l-57.132 9.032c14.268 21.006 27.068 44.305 38.332 68.335H694.53a2225.14 2225.14 0 0 1-2.198-98.4h-65.399c0 33.068 0 65.365 1.536 98.4H371.603v271.135c-2.239 117.931-27.034 209.531-74.336 275.668l52.565 46.531c54.067-81.128 82.603-188.532 85.6-322.198V332.937h196.035c4.533 82.63 12.8 159.962 25.532 231.328 6.001 34.536 12.8 66.137 19.538 94.665-37.533 61.536-84.139 108.134-139.735 141.203l42.134 54.798c45.001-27.798 85.6-66.13 121.597-114.128 7.537 20.999 15.066 38.263 22.535 51.732 22.535 41.329 48.067 62.396 75.865 62.396 42.803 0 64.601-56.334 64.601-169.001l-57.801-26.33c-1.529 82.664-5.263 124.669-11.264 125.467-12.8-2.266-26.33-23.265-41.335-63.863-4.533-12.739-8.998-26.999-12.732-43.534 38.999-72.07 70.599-160.734 93.864-267.367zM518.799 541.73h45.868v128.403h-45.868V541.73z" /></svg>
