<?xml version="1.0" standalone="no"?><!DOCTYPE svg PUBLIC "-//W3C//DTD SVG 1.1//EN" "http://www.w3.org/Graphics/SVG/1.1/DTD/svg11.dtd"><svg class="icon" width="200px" height="143.32px" viewBox="0 0 1429 1024" version="1.1" xmlns="http://www.w3.org/2000/svg"><path fill="#333333" d="M256.75264 123.370667l186.602667-0.448v-122.346667h-186.602667a132.650667 132.650667 0 0 0-100.096 47.658667 152.490667 152.490667 0 0 0-37.952 75.136h138.048z m-140.416 60.693333a112.896 112.896 0 0 0-91.328 40.96 141.525333 141.525333 0 0 0-24.362667 93.866667v148.992a97.706667 97.706667 0 0 0 30.826667 75.626666 110.698667 110.698667 0 0 0 52.778667 25.6v1.408a31.872 31.872 0 0 1-0.384 5.546667l-0.384 0.725333a97.152 97.152 0 0 0-66.794667 42.837334 112.682667 112.682667 0 0 0-16.064 61.866666v202.432a138.666667 138.666667 0 0 0 38.805333 106.901334 135.850667 135.850667 0 0 0 94.976 31.744c2.538667 0 5.141333 0 7.786667-0.149334 5.312 0 16.192 0.170667 38.4 0.661334 20.032 0.512 41.024 0.768 62.293333 0.768h77.845334v-839.786667h-204.330667z m1273.6 177.28a117.333333 117.333333 0 0 0 21.696-26.133333 124.864 124.864 0 0 0 18.261333-65.258667 136 136 0 0 0-15.701333-62.826667 128 128 0 0 0-23.061333-31.509333 106.112 106.112 0 0 0 20.416-35.904 110.656 110.656 0 0 0 3.498666-58.432 105.898667 105.898667 0 0 0-28.48-52.949333A95.210667 95.210667 0 0 0 1318.83264 0h-803.370667v122.794667h678.506667a106.389333 106.389333 0 0 1 106.005333 87.466666 226.901333 226.901333 0 0 1 4.501334 36.266667 93.866667 93.866667 0 0 1-15.509334 49.877333c-8.874667 10.261333-23.189333 12.202667-27.733333 19.904a34.432 34.432 0 0 0-5.504 19.2 46.805333 46.805333 0 0 0 5.568 24.597334 52.885333 52.885333 0 0 0 20.245333 20.373333 49.578667 49.578667 0 0 1 20.181334 22.485333 61.12 61.12 0 0 1 5.610666 28.117334 63.381333 63.381333 0 0 1-6.976 26.005333 23.466667 23.466667 0 0 1-18.816 13.333333 23.637333 23.637333 0 0 0-16.021333 11.925334 42.474667 42.474667 0 0 0-4.885333 20.373333 50.986667 50.986667 0 0 0 4.885333 21.781333 27.733333 27.733333 0 0 0 16.021333 14.805334 32 32 0 0 1 17.408 16.853333 67.434667 67.434667 0 0 1 6.976 26.730667 73.621333 73.621333 0 0 1-3.498666 26.688 33.557333 33.557333 0 0 1-12.544 18.24c-18.581333 11.264-35.498667 12.309333-40.832 37.952-2.922667 17.066667 3.776 23.466667 26.112 41.322666a41.6 41.6 0 0 1 13.717333 17.066667 50.752 50.752 0 0 1 2.432 21.888 40.533333 40.533333 0 0 1-6.208 21.333333 21.546667 21.546667 0 0 1-21.952 7.914667c-3.562667-0.277333-18.965333-3.925333-15.402667-10.922667a42.666667 42.666667 0 0 0 3.562667-30.570666 46.933333 46.933333 0 0 0-20.330667-21.824 33.130667 33.130667 0 0 1-16.021333-17.578667 55.466667 55.466667 0 0 1-4.138667-24.576 65.429333 65.429333 0 0 1 4.864-22.528 26.410667 26.410667 0 0 1 12.522667-14.016 30.08 30.08 0 0 0 16.704-15.466667 52.586667 52.586667 0 0 0 5.632-23.914666 61.568 61.568 0 0 0-4.266667-23.146667 26.410667 26.410667 0 0 0-12.544-14.762667 40.533333 40.533333 0 0 1-17.408-16.874666 50.88 50.88 0 0 1-6.272-25.301334 70.549333 70.549333 0 0 1 5.589334-27.413333 48.064 48.064 0 0 1 18.112-21.781333 44.48 44.48 0 0 0 13.930666-15.488 48.384 48.384 0 0 0 6.272-21.056 44.928 44.928 0 0 0-4.266666-21.802667 39.466667 39.466667 0 0 0-17.429334-17.557333 43.114667 43.114667 0 0 1-20.224-20.394667 64.213333 64.213333 0 0 1-6.272-27.392 60.074667 60.074667 0 0 1 6.272-26.730667 48.384 48.384 0 0 1 17.450667-19.690666 43.349333 43.349333 0 0 0 25.792-34.410667 102.4 102.4 0 0 0-3.498667-40.042667 54.912 54.912 0 0 0-16.746666-25.344 46.250667 46.250667 0 0 0-32-11.242666h-810.261334v839.232a72.170667 72.170667 0 0 0 8.917334 0.704h728.96a91.968 91.968 0 0 0 76.8-40.533334 117.738667 117.738667 0 0 0 11.392-112.448 105.92 105.92 0 0 0-4.714667-10.069333 95.850667 95.850667 0 0 0 33.6 5.568h75.242667a92.928 92.928 0 0 0 79.722666-40.96 107.456 107.456 0 0 0 17.493334-59.584 129.301333 129.301333 0 0 0-10.794667-51.306667 126.421333 126.421333 0 0 0-15.061333-26.24 111.594667 111.594667 0 0 0 19.413333-36.053333 145.834667 145.834667 0 0 0 7.082667-52.885333 140.565333 140.565333 0 0 0-14.314667-55.274667 118.613333 118.613333 0 0 0-10.197333-16.917333 102.698667 102.698667 0 0 0 10.666666-16.341334 136.149333 136.149333 0 0 0 15.210667-55.808v-0.746666a133.418667 133.418667 0 0 0-11.968-61.226667 120.682667 120.682667 0 0 0-20.288-31.253333z m-518.613333 79.381333q-2.773333 4.266667-15.338667 21.077334t-27.178667 35.84q-14.656 19.008-26.474666 35.84t-13.248 19.690666c-2.773333 4.693333-1.621333 7.530667 3.498666 8.533334a80.938667 80.938667 0 0 0 14.634667 1.408h47.402667a14.933333 14.933333 0 0 1 11.84 5.632 17.28 17.28 0 0 1 4.842666 11.221333v33.728q0 9.898667-13.909333 9.877333h-82.24a20.16 20.16 0 0 0-10.432 2.816 9.066667 9.066667 0 0 0-4.885333 8.384 107.52 107.52 0 0 0 0.682666 11.968 97.578667 97.578667 0 0 1 0.682667 10.538667 6.4 6.4 0 0 0 7.850667 6.4 31.317333 31.317333 0 0 0 6.101333-0.704h80.96a11.776 11.776 0 0 1 13.952 12.629333v30.933334q0 14.037333-19.52 14.058666h-18.112c-7.424 0-15.082667 0.256-22.997333 0.704s-15.104 0.682667-21.589334 0.682667h-12.565333a11.818667 11.818667 0 0 0-12.522667 14.058667v56.234666q0 7.04-11.178666 7.04h-44.586667a14.933333 14.933333 0 0 1-18.112-15.466666c0-3.754667 0.213333-11.690667 0.682667-23.893334a129.898667 129.898667 0 0 0-0.682667-25.301333 18.773333 18.773333 0 0 0-1.408-9.130667 10.538667 10.538667 0 0 0-8.341333-2.133333h-83.648a16.128 16.128 0 0 1-18.133334-18.282667 50.154667 50.154667 0 0 0-1.386666-10.666666 32.618667 32.618667 0 0 1 0-13.333334 52.608 52.608 0 0 1 4.266666-12.672 8.170667 8.170667 0 0 1 8.042667-4.48 18.496 18.496 0 0 1 3.114667 0.277334h93.397333c1.856 0 2.794667-2.325333 2.794667-7.04v-26.709334c0-4.693333-5.568-6.997333-16.746667-6.997333h-80.853333a59.264 59.264 0 0 1-9.749334-0.725333 6.4 6.4 0 0 1-4.266666-7.744v-16.853334a76.8 76.8 0 0 0-1.386667-16.896 11.861333 11.861333 0 0 1 4.266667-14.037333 28.288 28.288 0 0 1 18.154666-5.610667 127.189333 127.189333 0 0 0 15.786667 0.938667c2.773333 0 5.632 0 8.533333-0.234667 8.853333-0.469333 15.573333-0.725333 20.224-0.725333h16.725334c5.568 0 7.445333-1.877333 5.568-5.610667q-2.752-2.816-16.725334-21.077333t-29.269333-37.952q-18.112-23.893333-41.813333-52.032a16.533333 16.533333 0 0 1 4.266666-25.28 121.216 121.216 0 0 0 14.634667-10.666667 128.170667 128.170667 0 0 1 17.408-11.925333 13.824 13.824 0 0 1 7.189333-2.133333 25.898667 25.898667 0 0 1 19.2 17.685333q4.16 5.589333 16.042667 20.373333t24.384 31.637334q12.544 16.832 23.658667 30.208a144.106667 144.106667 0 0 1 12.565333 16.170666 13.568 13.568 0 0 0 10.474667 7.018667 15.616 15.616 0 0 0 2.88 0.277333 7.786667 7.786667 0 0 0 7.573333-4.48q1.365333-2.837333 11.818667-17.578666t23.018666-33.045334q12.501333-18.24 23.701334-34.432c7.381333-10.666667 12.053333-17.578667 13.930666-20.394666a45.162667 45.162667 0 0 1 11.84-12.629334 9.770667 9.770667 0 0 1 4.906667-1.130666 32.234667 32.234667 0 0 1 11.114667 2.538666 82.410667 82.410667 0 0 1 15.317333 8.426667 84.074667 84.074667 0 0 1 11.157333 8.426667 21.568 21.568 0 0 1 8.384 26.773333z"  /></svg>