<?xml version="1.0" standalone="no"?><!DOCTYPE svg PUBLIC "-//W3C//DTD SVG 1.1//EN" "http://www.w3.org/Graphics/SVG/1.1/DTD/svg11.dtd"><svg t="1498661625522" class="icon" style="" viewBox="0 0 1048 1024" version="1.1" xmlns="http://www.w3.org/2000/svg" p-id="2457" xmlns:xlink="http://www.w3.org/1999/xlink" width="32.75" height="32"><defs><style type="text/css"></style></defs><path d="M252.747004 1000.186047C244.126353 1000.186047 235.505702 997.423628 228.218632 992.065488 215.216214 982.468465 208.619749 966.084465 211.239283 949.843349L253.580493 650.597209 36.683004 440.08186C25.157051 428.651163 20.941981 411.505116 25.800028 395.811721 30.658074 380.118326 43.779563 368.64 59.592028 366.163349L355.837609 320.893023 484.980679 48.128C492.005795 33.315721 506.579935 23.885395 522.582911 23.813953L522.821051 23.813953C538.728772 23.813953 553.326725 33.077581 560.447097 47.699349L692.519283 318.964093 987.740865 360.924279C1003.600958 363.186605 1016.817702 374.522047 1021.890074 390.144 1026.914818 405.765953 1022.866446 423.007256 1011.459563 434.580837L798.324679 647.501395 837.474818 943.056372C838.308307 946.437953 838.736958 950.03386 838.736958 953.725023 838.736958 977.610419 819.900121 996.947349 796.681516 996.971163L796.562446 996.971163C789.918353 996.971163 783.27426 995.351814 777.177888 992.113116L527.059935 852.491907 272.5364 995.113674C266.320958 998.495256 259.533981 1000.186047 252.747004 1000.186047L252.747004 1000.186047Z" p-id="2458"></path></svg>