<?xml version="1.0" standalone="no"?><!DOCTYPE svg PUBLIC "-//W3C//DTD SVG 1.1//EN" "http://www.w3.org/Graphics/SVG/1.1/DTD/svg11.dtd"><svg t="1497795523657" class="icon" style="" viewBox="0 0 1024 1024" version="1.1" xmlns="http://www.w3.org/2000/svg" p-id="11630" xmlns:xlink="http://www.w3.org/1999/xlink" width="32" height="32"><defs><style type="text/css"></style></defs><path d="M514.56 198.656c-174.592 0-315.904 141.312-315.904 315.904s141.312 315.904 315.904 315.904 315.904-141.312 315.904-315.904a315.744 315.744 0 0 0-315.904-315.904z m174.592 317.44a29.728 29.728 0 0 1-29.696 29.696h-145.408c-2.048 0-4.096 0-6.144-0.512h-23.552v-194.048c0-16.384 13.312-30.208 30.208-30.208h1.024c16.384 0 30.208 13.312 30.208 30.208v134.144h113.664c16.384 0 29.696 13.312 29.696 29.696v1.024z" p-id="11631"></path></svg>