<?xml version="1.0" standalone="no"?><!DOCTYPE svg PUBLIC "-//W3C//DTD SVG 1.1//EN" "http://www.w3.org/Graphics/SVG/1.1/DTD/svg11.dtd"><svg class="icon" width="200px" height="200.00px" viewBox="0 0 1024 1024" version="1.1" xmlns="http://www.w3.org/2000/svg"><path fill="#333333" d="M806.6 216.4C728.2 138.2 630 97.6 512 95c-118 2.6-216.2 43.2-294.6 121.6C139.2 294.8 98.6 393 96 511c2.6 118 43.2 216.2 121.6 294.4 78.4 78.4 176.6 118.8 294.6 121.6 118-2.6 216.2-43.2 294.6-121.6 78.4-78.4 118.8-176.4 121.6-294.4C925.4 393 884.8 294.8 806.6 216.4zM683.6 555c-3 3-6.8 5-11.6 5l-192 0c-4.6 0-8.6-2-11.6-5s-4.6-7.4-4.6-12l0-288c0-4.6 1.6-8.4 4.6-11.6s6.8-4.4 11.6-4.4c4.6 0 8.4 1.6 11.4 4.4s4.4 6.8 4.4 11.6L495.8 528l176 0c4.6 0 8.4 1 11.6 4s4.4 6.8 4.4 11.6C688 548.2 686.6 552 683.6 555z" /></svg>