<?xml version="1.0" standalone="no"?><!DOCTYPE svg PUBLIC "-//W3C//DTD SVG 1.1//EN" "http://www.w3.org/Graphics/SVG/1.1/DTD/svg11.dtd"><svg class="icon" width="200px" height="200.00px" viewBox="0 0 1024 1024" version="1.1" xmlns="http://www.w3.org/2000/svg"><path fill="#333333" d="M32.2 507.6c0 171.8 111.4 320.2 272.8 389.8l0 90.2 414.2 0 0-90.2c161.4-69.6 272.8-218 272.8-389.8L32.2 507.6zM474.4 468l59.2 0c27.6-37.2 28.8-165.6 6.8-254.8-25.8-104.2 1.2-167.2 12.6-185.6l-66.2 0c-16.8 42-29.2 111.4-2.8 204.8C507.4 314 497.6 434.2 474.4 468zM267.4 468l59.2 0c9.8-21.4 15.2-91.2 0-159.2-12-54.8 4.2-107.4 20.2-135.4l-64 0c-16.4 30-30 88.6-13.8 150C283.8 379.6 276.6 448 267.4 468zM683.2 468l59.2 0c9.8-21.4 15-91.2 0-159.2-12-54.8 4.2-107.4 20.2-135.4l-64 0c-16.4 30-30 88.6-13.8 150C699.8 379.6 692.6 448 683.2 468z" /></svg>