<?xml version="1.0" standalone="no"?><!DOCTYPE svg PUBLIC "-//W3C//DTD SVG 1.1//EN" "http://www.w3.org/Graphics/SVG/1.1/DTD/svg11.dtd"><svg class="icon" width="200px" height="200.00px" viewBox="0 0 1024 1024" version="1.1" xmlns="http://www.w3.org/2000/svg"><path d="M509.944166 914.12992c-51.23072-0.38912-101.74464-5.14048-150.91712-19.97312-24.064-7.18336-46.20288-4.16256-68.03456 9.74848-29.06112 18.42176-59.39712 35.13856-89.41568 52.14208-9.20064 5.18656-19.52768 12.06784-30.06464 3.73248-10.10688-8.08448-7.23456-20.096-4.82304-30.464 6.30784-26.21952 12.88192-52.43392 21.20192-78.18752 6.97856-21.55008-2.33472-34.47808-18.62144-46.4896-182.97344-134.91712-222.44352-367.68768-94.6944-538.28608C175.039846 132.12672 314.677606 70.95296 477.380966 61.52192c163.63008-9.47712 310.23616 37.13024 430.30528 153.55392 25.43104 24.8064 25.25184 26.69056-6.37952 40.81664-157.93152 70.53824-316.06272 140.52352-473.7536 211.48672-25.51808 11.48416-47.18592 10.32192-69.66272-6.44096-31.17056-23.33184-63.29344-45.25056-94.95552-67.70688-8.46336-5.90848-17.37216-10.27584-26.07616-1.0752-6.98368 7.3984-4.8896 15.50336-0.93184 23.96672 29.21984 62.75584 57.91744 125.76256 87.57248 188.16 15.91808 33.57184 31.0272 37.40672 64.09728 18.33472 183.57248-106.02496 367.37536-211.65056 550.45632-318.45888 20.93056-12.16 30.08512-15.13472 43.61216 10.73664 77.62944 149.94432 46.36672 330.13248-76.25728 446.49984-111.44704 105.92256-244.66944 150.89664-395.46368 152.73472z"  /></svg>
