<?xml version="1.0" standalone="no"?><!DOCTYPE svg PUBLIC "-//W3C//DTD SVG 1.1//EN" "http://www.w3.org/Graphics/SVG/1.1/DTD/svg11.dtd"><svg class="icon" width="200px" height="200.00px" viewBox="0 0 1024 1024" version="1.1" xmlns="http://www.w3.org/2000/svg"><path d="M199.68 192h256c35.84 0 58.88 28.16 48.64 64l-117.76 512c-7.68 35.84-43.52 64-79.36 64H51.2C15.36 832-7.68 803.84 2.56 768l120.32-512c5.12-35.84 40.96-64 76.8-64z" fill="#DF3333" /><path d="M435.2 192h294.4c35.84 0 20.48 28.16 10.24 64l-117.76 512c-7.68 35.84-5.12 64-40.96 64H286.72c-35.84 0-58.88-28.16-48.64-64l117.76-512c7.68-35.84 43.52-64 79.36-64z" fill="#004788" /><path d="M716.8 192h256c35.84 0 58.88 28.16 48.64 64l-117.76 512c-7.68 35.84-43.52 64-79.36 64h-256c-35.84 0-58.88-28.16-48.64-64l117.76-512c7.68-35.84 43.52-64 79.36-64z" fill="#008088" /><path d="M673.28 655.36h23.04l7.68-23.04h-23.04l-7.68 23.04z m20.48-64l-7.68 28.16s10.24-5.12 12.8-5.12c5.12 0 12.8-2.56 12.8-2.56l5.12-17.92h-23.04v-2.56z m12.8-40.96l-7.68 25.6s7.68-5.12 12.8-5.12c5.12-2.56 12.8-2.56 12.8-2.56l5.12-17.92h-23.04z m51.2 0l-30.72 102.4h7.68l-7.68 20.48h-7.68l-2.56 7.68h-30.72l2.56-7.68h-61.44l5.12-20.48h5.12l30.72-104.96 5.12-20.48h30.72l-2.56 10.24s7.68-5.12 15.36-7.68c7.68-2.56 51.2-2.56 51.2-2.56l-7.68 20.48h-2.56v2.56zM773.12 529.92h33.28v12.8c0 2.56 2.56 2.56 5.12 2.56h7.68l-5.12 20.48H793.6c-15.36 0-20.48-5.12-20.48-12.8v-23.04z m2.56 94.72h-30.72l5.12-17.92h35.84l5.12-15.36h-35.84l5.12-20.48h97.28l-5.12 20.48H819.2l-5.12 15.36h33.28l-5.12 17.92h-35.84l-5.12 7.68h15.36l2.56 23.04v5.12h12.8l-7.68 20.48h-17.92c-2.56 0-5.12-2.56-7.68-2.56-2.56 0-5.12-2.56-5.12-7.68l-2.56-23.04-15.36 23.04c-5.12 7.68-12.8 12.8-23.04 12.8h-23.04l5.12-20.48h7.68c2.56 0 5.12 0 5.12-2.56 2.56 0 2.56-2.56 5.12-5.12l23.04-30.72z m-335.36-48.64h81.92l-5.12 20.48h-33.28l-5.12 15.36H512l-5.12 20.48h-33.28l-7.68 28.16c0 2.56 7.68 2.56 10.24 2.56l17.92-2.56-7.68 23.04h-46.08c-2.56 0-5.12-2.56-5.12-5.12-2.56-2.56-2.56-5.12-2.56-7.68l10.24-35.84h-17.92l5.12-20.48h17.92l5.12-15.36H435.2l5.12-23.04z m53.76-35.84h33.28l-5.12 20.48h-46.08l-5.12 5.12c-2.56 2.56-2.56 0-5.12 2.56s-7.68 5.12-15.36 5.12H435.2l5.12-20.48h12.8c2.56 0 2.56-2.56 5.12-5.12l7.68-15.36h33.28l-5.12 7.68z m64 35.84s10.24-7.68 25.6-10.24h25.6l2.56-10.24h-46.08l-7.68 20.48z m43.52 7.68h-46.08l-2.56 10.24h46.08l2.56-10.24z m-58.88-53.76h28.16l-5.12 15.36s10.24-7.68 15.36-10.24c5.12-2.56 20.48-5.12 20.48-5.12h46.08l-15.36 51.2c-2.56 10.24-5.12 15.36-7.68 17.92-2.56 2.56-2.56 5.12-7.68 7.68-5.12 2.56-7.68 2.56-10.24 2.56h-58.88l-12.8 40.96c0 5.12-2.56 5.12 0 7.68 0 0 2.56 2.56 5.12 2.56l20.48-2.56-7.68 23.04h-38.4c-2.56 0-7.68 0-10.24-2.56-2.56-2.56-5.12-5.12-5.12-7.68 0-2.56 0-5.12 2.56-10.24l40.96-130.56z" fill="#FFFFFF" /><path d="M624.64 614.4l-2.56 12.8c0 5.12-2.56 7.68-5.12 10.24-2.56 2.56-7.68 5.12-15.36 5.12h-15.36v15.36c0 5.12 0 2.56 2.56 5.12h23.04l-5.12 20.48H588.8c-12.8 0-20.48 0-23.04-2.56-2.56-2.56-2.56-5.12-2.56-7.68v-56.32h25.6v10.24h12.8l2.56-2.56 2.56-7.68 17.92-2.56M230.4 355.84c0 5.12-17.92 87.04-17.92 87.04-2.56 15.36-7.68 28.16-15.36 35.84-5.12 5.12-12.8 7.68-17.92 7.68-12.8 0-17.92-5.12-20.48-17.92v-2.56l2.56-23.04s17.92-74.24 23.04-84.48H140.8v5.12l-17.92 84.48-2.56 7.68-2.56 23.04c0 7.68 2.56 12.8 5.12 17.92 5.12 10.24 30.72 12.8 43.52 12.8 17.92 0 35.84-5.12 46.08-10.24 20.48-12.8 25.6-30.72 30.72-46.08l2.56-7.68s17.92-76.8 23.04-87.04c-28.16-2.56-35.84-2.56-38.4-2.56z m107.52 153.6h-33.28c2.56-5.12 2.56-10.24 5.12-17.92l2.56-7.68c2.56-12.8 5.12-25.6 5.12-30.72 0-2.56 0-10.24-5.12-10.24-2.56 0-5.12 2.56-10.24 2.56-2.56 7.68-5.12 25.6-7.68 33.28-2.56 17.92-5.12 20.48-5.12 28.16H256l7.68-30.72c7.68-28.16 7.68-38.4 10.24-53.76 15.36-2.56 17.92-2.56 33.28-5.12l2.56 2.56-2.56 10.24c2.56-2.56 5.12-2.56 7.68-5.12 7.68-2.56 15.36-5.12 20.48-5.12 7.68 0 15.36 2.56 17.92 10.24 2.56 7.68 0 15.36-2.56 33.28l-2.56 7.68c-7.68 20.48-7.68 23.04-10.24 38.4m51.2-17.92h-35.84c2.56-7.68 2.56-10.24 5.12-12.8 0-2.56 2.56-5.12 2.56-12.8 2.56-10.24 2.56-17.92 5.12-23.04 0-5.12 2.56-10.24 2.56-15.36 7.68 0 12.8-2.56 17.92-2.56 5.12 0 10.24-2.56 17.92-2.56-2.56 5.12-2.56 12.8-5.12 17.92-2.56 5.12-2.56 12.8-5.12 17.92-2.56 12.8-5.12 17.92-5.12 20.48 2.56 2.56 2.56 5.12 0 12.8m81.92-46.08c0 2.56-2.56 15.36-7.68 20.48-2.56 2.56-5.12 5.12-10.24 5.12 0 0-7.68 0-7.68-10.24 0-5.12 0-10.24 2.56-15.36 2.56-15.36 7.68-28.16 17.92-28.16 7.68 5.12 7.68 12.8 5.12 28.16z m33.28 2.56c5.12-20.48 0-28.16-2.56-35.84-7.68-7.68-17.92-10.24-30.72-10.24-7.68 0-25.6 0-38.4 12.8-10.24 10.24-15.36 20.48-17.92 33.28-2.56 12.8-5.12 33.28 12.8 40.96 5.12 2.56 15.36 2.56 20.48 2.56 15.36 0 30.72-5.12 40.96-15.36 10.24-7.68 15.36-23.04 15.36-28.16z m335.36-46.08c-15.36 2.56-20.48 2.56-35.84 5.12v2.56c-2.56-5.12-5.12-7.68-10.24-10.24-7.68-2.56-23.04 0-35.84 12.8-10.24 10.24-15.36 20.48-17.92 33.28-2.56 12.8-5.12 33.28 12.8 40.96 5.12 2.56 12.8 2.56 17.92 2.56 5.12 0 12.8-2.56 17.92-7.68 0 2.56 0 2.56-2.56 5.12H821.76l10.24-51.2c2.56-7.68 5.12-20.48 7.68-33.28m-51.2 66.56c-2.56 2.56-7.68 5.12-12.8 5.12 0 0-7.68 0-7.68-10.24 0-5.12 0-10.24 2.56-15.36 2.56-15.36 7.68-28.16 17.92-28.16 7.68 0 10.24 5.12 10.24 15.36 0 2.56 0 5.12-2.56 7.68 0 5.12-2.56 7.68-2.56 12.8-2.56 7.68-5.12 10.24-5.12 12.8z m-197.12 40.96h-33.28c0-5.12 2.56-10.24 5.12-17.92l2.56-7.68c2.56-12.8 5.12-25.6 5.12-30.72 0-2.56 0-10.24-5.12-10.24-2.56 0-7.68 2.56-10.24 2.56-2.56 7.68-5.12 25.6-7.68 33.28-2.56 17.92-5.12 20.48-5.12 28.16h-33.28l7.68-30.72c5.12-28.16 7.68-38.4 10.24-53.76 15.36-2.56 17.92-2.56 35.84-5.12l2.56 2.56-2.56 10.24c2.56-2.56 5.12-2.56 7.68-5.12 7.68-2.56 15.36-5.12 20.48-5.12 7.68 0 15.36 2.56 17.92 10.24 2.56 7.68 0 15.36-2.56 33.28l-2.56 7.68c-7.68 20.48-7.68 23.04-12.8 38.4" fill="#FFFFFF" /><path d="M704 355.84h-53.76v5.12l-10.24 46.08-25.6 102.4h38.4c0-5.12 7.68-30.72 7.68-30.72l5.12-20.48 2.56-2.56h2.56c20.48 0 43.52 0 64-12.8 12.8-10.24 20.48-23.04 25.6-40.96 0-5.12 2.56-10.24 2.56-12.8 0-7.68-2.56-12.8-5.12-17.92-12.8-15.36-33.28-15.36-53.76-15.36z m12.8 46.08c-2.56 10.24-7.68 17.92-17.92 23.04-7.68 2.56-15.36 2.56-25.6 2.56h-5.12v-2.56l10.24-46.08v-5.12h5.12l23.04 2.56c10.24 7.68 12.8 15.36 10.24 25.6z m-312.32 28.16c7.68-5.12 10.24-15.36 2.56-17.92-7.68-5.12-20.48-2.56-28.16 2.56-7.68 5.12-10.24 12.8-2.56 17.92 5.12 5.12 17.92 2.56 28.16-2.56z m540.16-28.16c-17.92 2.56-20.48 2.56-33.28 5.12-10.24 25.6-10.24 20.48-20.48 38.4v-2.56l-2.56-43.52-2.56-2.56c-15.36 2.56-17.92 2.56-33.28 5.12v2.56c2.56 10.24 2.56 7.68 2.56 23.04 0 7.68 2.56 15.36 2.56 23.04 2.56 12.8 2.56 17.92 5.12 38.4-10.24 17.92-12.8 23.04-23.04 38.4l-7.68 10.24-2.56 2.56H819.2l-5.12 20.48h20.48c12.8 0 17.92-5.12 23.04-12.8l12.8-20.48 2.56-2.56c10.24-12.8 71.68-122.88 71.68-122.88z" fill="#FFFFFF" /></svg>